<svg width="10" height="18" viewBox="0 0 10 18" fill="none" xmlns="http://www.w3.org/2000/svg">
<path d="M0.404172 15.7263C0.169492 15.9835 0.039114 16.3218 0.0521517 16.6737C0.0521517 17.0256 0.182529 17.3504 0.430248 17.6075C0.664928 17.8511 0.990873 18 1.32986 18C1.66884 18 1.99479 17.8782 2.2425 17.6346L9.6219 9.97444C9.73924 9.85263 9.83051 9.70376 9.8957 9.54135C9.96089 9.37895 10 9.20301 10 9.02707C10 8.85113 9.96089 8.67519 9.8957 8.49925C9.83051 8.33684 9.73924 8.18797 9.6219 8.06616L2.2425 0.406015C2.12516 0.284211 1.98175 0.17594 1.82529 0.108271C1.6558 0.0406015 1.48631 0 1.31682 0C1.14733 0 0.964798 0.0270677 0.808344 0.0947368C0.651891 0.162406 0.508474 0.270677 0.378097 0.392481C0.260756 0.514286 0.169492 0.676692 0.104302 0.839098C0.0260754 1.0015 0 1.17744 0 1.36692C0 1.54286 0.039114 1.7188 0.104302 1.8812C0.169492 2.04361 0.273794 2.19248 0.404172 2.32782L6.85789 9.02707L5.63233 10.2857L0.404172 15.7263Z" fill="#082A4F"/>
</svg>
