<svg width="15" height="17" viewBox="0 0 15 17" fill="none" xmlns="http://www.w3.org/2000/svg">
<path d="M12.9557 9.68746V9.74853L12.9984 9.79223L14.4993 11.33C14.4994 11.3301 14.4995 11.3302 14.4996 11.3303C14.6676 11.5045 14.7818 11.7255 14.8276 11.966C14.8734 12.2066 14.8486 12.4556 14.7563 12.6818C14.664 12.9079 14.5085 13.1009 14.3097 13.2369C14.1111 13.3727 13.8778 13.4458 13.6391 13.4472H10.8367H10.6867V13.5972V13.8828C10.6487 14.7056 10.2926 15.4791 9.69696 16.0344C9.10065 16.5903 8.31294 16.8823 7.50653 16.8472L7.50655 16.8466L7.49347 16.8472C6.68706 16.8823 5.89935 16.5903 5.30304 16.0344C4.70743 15.4791 4.35128 14.7056 4.31325 13.8828V13.5972V13.4472H4.16325H1.36092C1.12219 13.4458 0.888931 13.3727 0.690257 13.2369C0.491458 13.1009 0.335993 12.9079 0.243717 12.6818C0.151432 12.4556 0.126578 12.2066 0.172377 11.966C0.218152 11.7255 0.332393 11.5044 0.500413 11.3303C0.500492 11.3302 0.500571 11.3301 0.50065 11.33L2.00161 9.79223L2.04427 9.74853V9.68746L2.04427 5.71847C2.04427 5.71842 2.04427 5.71838 2.04427 5.71833C2.04571 4.9247 2.21324 4.14059 2.5356 3.41834C2.85797 2.69605 3.32772 2.05234 3.91334 1.53005C4.49895 1.00776 5.18696 0.61889 5.93141 0.3892C6.67534 0.159671 7.45865 0.094333 8.22922 0.197493C9.55782 0.405373 10.7684 1.09591 11.6374 2.14252C12.5067 3.18962 12.9752 4.52231 12.9557 5.89456H12.9557V5.89669V9.68746ZM9.31742 13.9031L9.31837 13.8947V13.8862V13.5972V13.4472H9.16837H5.83163H5.68163V13.5972V13.8862V13.8947L5.68258 13.9031C5.73309 14.3495 5.95075 14.7594 6.29111 15.0473C6.6288 15.3329 7.06137 15.4762 7.5 15.4475C7.93863 15.4762 8.3712 15.3329 8.70889 15.0473C9.04925 14.7594 9.26691 14.3495 9.31742 13.9031ZM1.97908 11.7923L1.72874 12.0473H2.08613H12.9139H13.2734L13.0205 11.7918L12.0287 10.7898C12.0285 10.7896 12.0284 10.7895 12.0283 10.7893C11.8876 10.6447 11.7761 10.4731 11.7004 10.2842C11.6246 10.0952 11.5862 9.89267 11.5874 9.68831V9.68746V5.86423C11.6084 4.83382 11.2636 3.82992 10.6158 3.03721C9.9676 2.24403 9.0595 1.71558 8.05836 1.54995L8.05837 1.54988L8.05365 1.54925C7.472 1.4719 6.88081 1.52427 6.32107 1.70269C5.76178 1.88096 5.24736 2.18077 4.8133 2.58122C4.37377 2.97229 4.02154 3.4544 3.78004 3.99513C3.53835 4.53629 3.41311 5.12373 3.41264 5.71808V5.7182V9.68746L3.41264 9.68757C3.4128 9.89248 3.37315 10.0953 3.29605 10.2844C3.21895 10.4735 3.10596 10.6449 2.96373 10.789L2.96342 10.7893L1.97908 11.7923ZM3.43495 10.341C3.51942 10.1339 3.56281 9.91177 3.56264 9.68746L3.07047 10.8944C3.2266 10.7362 3.35047 10.5482 3.43495 10.341Z" fill="#082A4F" stroke="#EFF7FF" stroke-width="0.3"/>
</svg>
