<svg width="15" height="15" viewBox="0 0 15 15" fill="none" xmlns="http://www.w3.org/2000/svg">
<path d="M13.7496 0.652917C13.3899 0.298732 12.9051 0.1 12.3998 0.1C11.8897 0.1 11.4004 0.30263 11.0395 0.663328C11.0395 0.663332 11.0395 0.663335 11.0395 0.663339L1.1316 10.5713L0.128414 13.9916C0.128404 13.9916 0.128395 13.9916 0.128385 13.9917C0.0928251 14.1136 0.0906359 14.2428 0.122047 14.3659C0.153466 14.489 0.217352 14.6014 0.307035 14.6913C0.396718 14.7813 0.508909 14.8456 0.631896 14.8774C0.75486 14.9092 0.884108 14.9074 1.00615 14.8722L13.7496 0.652917ZM13.7496 0.652917C13.7525 0.656834 13.7558 0.660586 13.7593 0.664138L14.3317 1.23653C14.6924 1.59735 14.8951 2.08665 14.8951 2.59684C14.8951 3.10703 14.6924 3.59633 14.3317 3.95715C14.3317 3.95715 14.3317 3.95715 14.3317 3.95715L4.39803 13.8917L1.00622 14.8722L13.7496 0.652917ZM9.86804 3.98308C9.84928 3.96431 9.82384 3.95377 9.79732 3.95376C9.77079 3.95376 9.74535 3.96429 9.72659 3.98305L2.4092 11.3004C2.39735 11.3123 2.38867 11.3269 2.38395 11.343L1.90546 12.9752C1.8952 13.0102 1.90482 13.0481 1.93058 13.0739C1.95634 13.0998 1.99414 13.1096 2.0292 13.0994L3.62821 12.6371C3.64443 12.6324 3.6592 12.6237 3.67114 12.6118L11.0128 5.27009C11.0519 5.23105 11.0519 5.16775 11.0128 5.1287L9.86804 3.98308ZM12.0413 1.66758L10.9829 2.7275C10.9702 2.73779 10.9599 2.75126 10.9534 2.76705C10.9379 2.80442 10.9464 2.84743 10.975 2.87603L12.1198 4.02084C12.1386 4.03959 12.164 4.05013 12.1905 4.05013C12.2171 4.05013 12.2425 4.03959 12.2613 4.02084L13.3283 2.95376L13.3284 2.95375C13.423 2.85908 13.4762 2.7307 13.4762 2.59684C13.4762 2.46298 13.423 2.33461 13.3284 2.23994L13.3283 2.23988L12.7551 1.66752C12.7551 1.6675 12.7551 1.66749 12.7551 1.66748C12.6604 1.57286 12.5321 1.51971 12.3982 1.51971C12.2644 1.51971 12.136 1.57288 12.0413 1.66752L12.0413 1.66758Z" fill="#244365" stroke="#EFF7FF" stroke-width="0.2" stroke-linejoin="round"/>
</svg>
