<svg width="16" height="16" viewBox="0 0 16 16" fill="none" xmlns="http://www.w3.org/2000/svg">
<path d="M8 0C6.41775 0 4.87103 0.469191 3.55544 1.34824C2.23985 2.22729 1.21447 3.47672 0.608967 4.93853C0.00346625 6.40034 -0.15496 8.00887 0.153721 9.56072C0.462403 11.1126 1.22433 12.538 2.34315 13.6568C3.46197 14.7757 4.88743 15.5376 6.43928 15.8463C7.99112 16.155 9.59966 15.9965 11.0615 15.391C12.5233 14.7855 13.7727 13.7601 14.6518 12.4446C15.5308 11.129 16 9.58224 16 7.99999C16 5.87826 15.1571 3.84343 13.6568 2.34314C12.1566 0.842854 10.1217 0 8 0ZM8 15C6.61553 15 5.26215 14.5894 4.11101 13.8203C2.95987 13.0511 2.06266 11.9579 1.53285 10.6788C1.00303 9.3997 0.86441 7.99223 1.13451 6.63436C1.4046 5.2765 2.07129 4.02922 3.05025 3.05025C4.02922 2.07128 5.2765 1.4046 6.63437 1.1345C7.99223 0.864406 9.3997 1.00303 10.6788 1.53284C11.9579 2.06266 13.0511 2.95986 13.8203 4.11101C14.5895 5.26215 15 6.61553 15 7.99999C15 9.85651 14.2625 11.637 12.9497 12.9497C11.637 14.2625 9.85651 15 8 15Z" fill="#082A4F"/>
<path d="M8.145 3.45998C7.60317 3.45102 7.06603 3.56151 6.57173 3.7836C6.07743 4.00569 5.63811 4.33392 5.285 4.74498C5.23594 4.79044 5.1965 4.84528 5.16902 4.90626C5.14154 4.96724 5.12657 5.03311 5.125 5.09998C5.12497 5.16167 5.13734 5.22273 5.16139 5.27954C5.18544 5.33636 5.22067 5.38775 5.26499 5.43066C5.30931 5.47358 5.3618 5.50715 5.41936 5.52936C5.47691 5.55158 5.53834 5.56199 5.6 5.55998C5.73209 5.5567 5.85839 5.50511 5.955 5.41498C6.22223 5.10182 6.55414 4.85027 6.92787 4.67764C7.30161 4.50501 7.70832 4.4154 8.12 4.41498C9.3 4.41498 10.035 5.17498 10.035 6.11997V6.14497C10.035 7.24997 9.155 7.86497 7.765 7.96997C7.70871 7.97215 7.65352 7.98618 7.60304 8.01116C7.55256 8.03614 7.50792 8.0715 7.47204 8.11492C7.43617 8.15835 7.40987 8.20886 7.39487 8.26315C7.37987 8.31744 7.37651 8.37429 7.385 8.42997V9.80497C7.39744 9.92873 7.45556 10.0434 7.54801 10.1266C7.64046 10.2098 7.76062 10.2556 7.885 10.255H7.94C8.06376 10.2425 8.17844 10.1844 8.26165 10.092C8.34486 9.99951 8.39062 9.87936 8.39 9.75497V8.72497C9.89 8.51497 11.105 7.72497 11.105 6.08498V6.05997C11.09 4.55998 9.92 3.45998 8.145 3.45998Z" fill="#082A4F"/>
<path d="M7.88965 12.7251C8.23483 12.7251 8.51465 12.4453 8.51465 12.1001C8.51465 11.7549 8.23483 11.4751 7.88965 11.4751C7.54447 11.4751 7.26465 11.7549 7.26465 12.1001C7.26465 12.4453 7.54447 12.7251 7.88965 12.7251Z" fill="#082A4F"/>
</svg>
