<svg width="18" height="17" viewBox="0 0 18 17" fill="none" xmlns="http://www.w3.org/2000/svg">
<path d="M9.00016 3.21665L8.19351 2.3875C6.30007 0.441189 2.82822 1.11283 1.57493 3.55978C0.986537 4.71069 0.853783 6.37237 1.92819 8.49306C2.96322 10.535 5.11654 12.9808 9.00016 15.6449C12.8838 12.9808 15.036 10.535 16.0721 8.49306C17.1465 6.37124 17.0149 4.71069 16.4254 3.55978C15.1721 1.11283 11.7002 0.440064 9.80681 2.38637L9.00016 3.21665ZM9.00016 17.0006C-8.24999 5.60172 3.68887 -3.29505 8.80215 1.41097C8.86965 1.47285 8.93603 1.53697 9.00016 1.60335C9.06363 1.53703 9.12968 1.47323 9.19816 1.41209C14.3103 -3.2973 26.2503 5.6006 9.00016 17.0006Z" fill="#EFF7FF"/>
</svg>
