<svg width="18" height="19" viewBox="0 0 18 19" fill="none" xmlns="http://www.w3.org/2000/svg">
<mask id="path-1-outside-1_243_48" maskUnits="userSpaceOnUse" x="0" y="0" width="18" height="19" fill="black">
<rect fill="white" width="18" height="19"/>
<path fill-rule="evenodd" clip-rule="evenodd" d="M1.63782 1.05088C1.44349 1.11175 1.11206 1.45278 1.05247 1.65319C0.98251 1.88854 0.98251 17.1067 1.05247 17.3421C1.11673 17.5582 1.44472 17.8841 1.66221 17.948C1.89846 18.0173 13.4135 18.0173 13.6498 17.948C13.8673 17.8841 14.1953 17.5582 14.2595 17.3421C14.2953 17.2216 14.3077 16.4661 14.3077 14.3921V11.604L15.6538 10.2642C16.9152 9.00891 17 8.91575 17 8.78517C17 8.60824 16.867 8.47471 16.6907 8.47471C16.6012 8.47471 16.5181 8.51653 16.4039 8.61906L16.2431 8.76341L16.1402 8.6612L16.0374 8.55898L16.2278 8.34964C16.7873 7.73446 16.8004 6.90806 16.26 6.31086C15.8146 5.8186 15.0001 5.69856 14.4363 6.04211L14.3077 6.12052V3.96784C14.3077 2.39265 14.2948 1.77169 14.2595 1.65319C14.1953 1.43708 13.8673 1.11116 13.6498 1.0473C13.4272 0.981952 1.84687 0.985415 1.63782 1.05088ZM13.577 1.72554L13.6742 1.82209V4.27311V6.72413L10.6441 9.73378C7.77845 12.5802 7.61097 12.7541 7.55792 12.9402C7.52708 13.0484 7.41891 13.5264 7.31759 14.0025L7.13336 14.868L6.93274 15.0726C6.70057 15.3094 6.67182 15.454 6.82485 15.6159C6.97336 15.773 7.11123 15.7466 7.359 15.5137L7.57201 15.3135L8.47514 15.1211C8.97187 15.0152 9.44957 14.9092 9.53667 14.8855C9.67133 14.8489 9.99306 14.5467 11.6846 12.8685L13.6742 10.8946V11.1125C13.6742 11.3196 13.6651 11.3391 13.4928 11.5058C13.3032 11.6892 13.199 11.8494 13.199 11.9577C13.199 11.9929 13.2532 12.0755 13.3194 12.1413C13.4171 12.2384 13.4618 12.2565 13.557 12.2376L13.6742 12.2143V14.6937V17.1732L13.577 17.2697L13.4798 17.3663H7.65599H1.83218L1.73502 17.2697L1.63782 17.1732V9.49764V1.82209L1.73502 1.72554L1.83218 1.62895H7.65599H13.4798L13.577 1.72554ZM3.31875 3.61403C3.25746 3.67489 3.22155 3.75555 3.22155 3.83219C3.22155 3.90883 3.25746 3.98948 3.31875 4.05035L3.41591 4.14693H7.65599H11.8961L11.9932 4.05035C12.0545 3.98948 12.0904 3.90883 12.0904 3.83219C12.0904 3.75555 12.0545 3.67489 11.9932 3.61403L11.8961 3.51744H7.65599H3.41591L3.31875 3.61403ZM3.31875 5.18776C3.25746 5.24863 3.22155 5.32928 3.22155 5.40592C3.22155 5.48256 3.25746 5.56322 3.31875 5.62408L3.41591 5.72067H7.65599H11.8961L11.9932 5.62408C12.0545 5.56322 12.0904 5.48256 12.0904 5.40592C12.0904 5.32928 12.0545 5.24863 11.9932 5.18776L11.8961 5.09118H7.65599H3.41591L3.31875 5.18776ZM15.4194 6.51309C15.7654 6.61613 16.0084 6.94661 16.0084 7.31408C16.0084 7.62615 15.9054 7.78101 15.3016 8.37584L14.7431 8.92614L14.1492 8.33697L13.5554 7.74784L14.1386 7.16729C14.8352 6.4739 15.0018 6.3888 15.4194 6.51309ZM3.31875 6.7615C3.25746 6.82237 3.22155 6.90302 3.22155 6.97966C3.22155 7.0563 3.25746 7.13696 3.31875 7.19782L3.41591 7.29441H7.65599H11.8961L11.9932 7.19782C12.0545 7.13696 12.0904 7.0563 12.0904 6.97966C12.0904 6.90302 12.0545 6.82237 11.9932 6.7615L11.8961 6.66491H7.65599H3.41591L3.31875 6.7615ZM11.9519 11.7009L9.61613 14.0221L9.02224 13.4319L8.42834 12.8418L10.7641 10.5206L13.0998 8.19935L13.6937 8.7895L14.2876 9.37965L11.9519 11.7009ZM3.31875 8.33524C3.25746 8.3961 3.22155 8.47676 3.22155 8.5534C3.22155 8.63004 3.25746 8.71069 3.31875 8.77156L3.41591 8.86814H5.2804H7.14488L7.24204 8.77156C7.37064 8.64381 7.37064 8.46299 7.24204 8.33524L7.14488 8.23865H5.2804H3.41591L3.31875 8.33524ZM15.7251 9.11546L15.8101 9.20544L15.0589 9.95111L14.3077 10.6968V10.4813V10.2657L14.9308 9.64561C15.2735 9.30458 15.5733 9.02552 15.597 9.02552C15.6207 9.02552 15.6783 9.066 15.7251 9.11546ZM9.00216 14.4162C9.00216 14.4417 7.77643 14.7058 7.75537 14.6848C7.74737 14.6769 7.77323 14.529 7.81278 14.3561C7.8523 14.1832 7.91517 13.9022 7.95239 13.7315L8.02013 13.4212L8.51117 13.908C8.78119 14.1757 9.00216 14.4044 9.00216 14.4162Z"/>
</mask>
<path fill-rule="evenodd" clip-rule="evenodd" d="M1.63782 1.05088C1.44349 1.11175 1.11206 1.45278 1.05247 1.65319C0.98251 1.88854 0.98251 17.1067 1.05247 17.3421C1.11673 17.5582 1.44472 17.8841 1.66221 17.948C1.89846 18.0173 13.4135 18.0173 13.6498 17.948C13.8673 17.8841 14.1953 17.5582 14.2595 17.3421C14.2953 17.2216 14.3077 16.4661 14.3077 14.3921V11.604L15.6538 10.2642C16.9152 9.00891 17 8.91575 17 8.78517C17 8.60824 16.867 8.47471 16.6907 8.47471C16.6012 8.47471 16.5181 8.51653 16.4039 8.61906L16.2431 8.76341L16.1402 8.6612L16.0374 8.55898L16.2278 8.34964C16.7873 7.73446 16.8004 6.90806 16.26 6.31086C15.8146 5.8186 15.0001 5.69856 14.4363 6.04211L14.3077 6.12052V3.96784C14.3077 2.39265 14.2948 1.77169 14.2595 1.65319C14.1953 1.43708 13.8673 1.11116 13.6498 1.0473C13.4272 0.981952 1.84687 0.985415 1.63782 1.05088ZM13.577 1.72554L13.6742 1.82209V4.27311V6.72413L10.6441 9.73378C7.77845 12.5802 7.61097 12.7541 7.55792 12.9402C7.52708 13.0484 7.41891 13.5264 7.31759 14.0025L7.13336 14.868L6.93274 15.0726C6.70057 15.3094 6.67182 15.454 6.82485 15.6159C6.97336 15.773 7.11123 15.7466 7.359 15.5137L7.57201 15.3135L8.47514 15.1211C8.97187 15.0152 9.44957 14.9092 9.53667 14.8855C9.67133 14.8489 9.99306 14.5467 11.6846 12.8685L13.6742 10.8946V11.1125C13.6742 11.3196 13.6651 11.3391 13.4928 11.5058C13.3032 11.6892 13.199 11.8494 13.199 11.9577C13.199 11.9929 13.2532 12.0755 13.3194 12.1413C13.4171 12.2384 13.4618 12.2565 13.557 12.2376L13.6742 12.2143V14.6937V17.1732L13.577 17.2697L13.4798 17.3663H7.65599H1.83218L1.73502 17.2697L1.63782 17.1732V9.49764V1.82209L1.73502 1.72554L1.83218 1.62895H7.65599H13.4798L13.577 1.72554ZM3.31875 3.61403C3.25746 3.67489 3.22155 3.75555 3.22155 3.83219C3.22155 3.90883 3.25746 3.98948 3.31875 4.05035L3.41591 4.14693H7.65599H11.8961L11.9932 4.05035C12.0545 3.98948 12.0904 3.90883 12.0904 3.83219C12.0904 3.75555 12.0545 3.67489 11.9932 3.61403L11.8961 3.51744H7.65599H3.41591L3.31875 3.61403ZM3.31875 5.18776C3.25746 5.24863 3.22155 5.32928 3.22155 5.40592C3.22155 5.48256 3.25746 5.56322 3.31875 5.62408L3.41591 5.72067H7.65599H11.8961L11.9932 5.62408C12.0545 5.56322 12.0904 5.48256 12.0904 5.40592C12.0904 5.32928 12.0545 5.24863 11.9932 5.18776L11.8961 5.09118H7.65599H3.41591L3.31875 5.18776ZM15.4194 6.51309C15.7654 6.61613 16.0084 6.94661 16.0084 7.31408C16.0084 7.62615 15.9054 7.78101 15.3016 8.37584L14.7431 8.92614L14.1492 8.33697L13.5554 7.74784L14.1386 7.16729C14.8352 6.4739 15.0018 6.3888 15.4194 6.51309ZM3.31875 6.7615C3.25746 6.82237 3.22155 6.90302 3.22155 6.97966C3.22155 7.0563 3.25746 7.13696 3.31875 7.19782L3.41591 7.29441H7.65599H11.8961L11.9932 7.19782C12.0545 7.13696 12.0904 7.0563 12.0904 6.97966C12.0904 6.90302 12.0545 6.82237 11.9932 6.7615L11.8961 6.66491H7.65599H3.41591L3.31875 6.7615ZM11.9519 11.7009L9.61613 14.0221L9.02224 13.4319L8.42834 12.8418L10.7641 10.5206L13.0998 8.19935L13.6937 8.7895L14.2876 9.37965L11.9519 11.7009ZM3.31875 8.33524C3.25746 8.3961 3.22155 8.47676 3.22155 8.5534C3.22155 8.63004 3.25746 8.71069 3.31875 8.77156L3.41591 8.86814H5.2804H7.14488L7.24204 8.77156C7.37064 8.64381 7.37064 8.46299 7.24204 8.33524L7.14488 8.23865H5.2804H3.41591L3.31875 8.33524ZM15.7251 9.11546L15.8101 9.20544L15.0589 9.95111L14.3077 10.6968V10.4813V10.2657L14.9308 9.64561C15.2735 9.30458 15.5733 9.02552 15.597 9.02552C15.6207 9.02552 15.6783 9.066 15.7251 9.11546ZM9.00216 14.4162C9.00216 14.4417 7.77643 14.7058 7.75537 14.6848C7.74737 14.6769 7.77323 14.529 7.81278 14.3561C7.8523 14.1832 7.91517 13.9022 7.95239 13.7315L8.02013 13.4212L8.51117 13.908C8.78119 14.1757 9.00216 14.4044 9.00216 14.4162Z" fill="#082A4F"/>
<path fill-rule="evenodd" clip-rule="evenodd" d="M1.63782 1.05088C1.44349 1.11175 1.11206 1.45278 1.05247 1.65319C0.98251 1.88854 0.98251 17.1067 1.05247 17.3421C1.11673 17.5582 1.44472 17.8841 1.66221 17.948C1.89846 18.0173 13.4135 18.0173 13.6498 17.948C13.8673 17.8841 14.1953 17.5582 14.2595 17.3421C14.2953 17.2216 14.3077 16.4661 14.3077 14.3921V11.604L15.6538 10.2642C16.9152 9.00891 17 8.91575 17 8.78517C17 8.60824 16.867 8.47471 16.6907 8.47471C16.6012 8.47471 16.5181 8.51653 16.4039 8.61906L16.2431 8.76341L16.1402 8.6612L16.0374 8.55898L16.2278 8.34964C16.7873 7.73446 16.8004 6.90806 16.26 6.31086C15.8146 5.8186 15.0001 5.69856 14.4363 6.04211L14.3077 6.12052V3.96784C14.3077 2.39265 14.2948 1.77169 14.2595 1.65319C14.1953 1.43708 13.8673 1.11116 13.6498 1.0473C13.4272 0.981952 1.84687 0.985415 1.63782 1.05088ZM13.577 1.72554L13.6742 1.82209V4.27311V6.72413L10.6441 9.73378C7.77845 12.5802 7.61097 12.7541 7.55792 12.9402C7.52708 13.0484 7.41891 13.5264 7.31759 14.0025L7.13336 14.868L6.93274 15.0726C6.70057 15.3094 6.67182 15.454 6.82485 15.6159C6.97336 15.773 7.11123 15.7466 7.359 15.5137L7.57201 15.3135L8.47514 15.1211C8.97187 15.0152 9.44957 14.9092 9.53667 14.8855C9.67133 14.8489 9.99306 14.5467 11.6846 12.8685L13.6742 10.8946V11.1125C13.6742 11.3196 13.6651 11.3391 13.4928 11.5058C13.3032 11.6892 13.199 11.8494 13.199 11.9577C13.199 11.9929 13.2532 12.0755 13.3194 12.1413C13.4171 12.2384 13.4618 12.2565 13.557 12.2376L13.6742 12.2143V14.6937V17.1732L13.577 17.2697L13.4798 17.3663H7.65599H1.83218L1.73502 17.2697L1.63782 17.1732V9.49764V1.82209L1.73502 1.72554L1.83218 1.62895H7.65599H13.4798L13.577 1.72554ZM3.31875 3.61403C3.25746 3.67489 3.22155 3.75555 3.22155 3.83219C3.22155 3.90883 3.25746 3.98948 3.31875 4.05035L3.41591 4.14693H7.65599H11.8961L11.9932 4.05035C12.0545 3.98948 12.0904 3.90883 12.0904 3.83219C12.0904 3.75555 12.0545 3.67489 11.9932 3.61403L11.8961 3.51744H7.65599H3.41591L3.31875 3.61403ZM3.31875 5.18776C3.25746 5.24863 3.22155 5.32928 3.22155 5.40592C3.22155 5.48256 3.25746 5.56322 3.31875 5.62408L3.41591 5.72067H7.65599H11.8961L11.9932 5.62408C12.0545 5.56322 12.0904 5.48256 12.0904 5.40592C12.0904 5.32928 12.0545 5.24863 11.9932 5.18776L11.8961 5.09118H7.65599H3.41591L3.31875 5.18776ZM15.4194 6.51309C15.7654 6.61613 16.0084 6.94661 16.0084 7.31408C16.0084 7.62615 15.9054 7.78101 15.3016 8.37584L14.7431 8.92614L14.1492 8.33697L13.5554 7.74784L14.1386 7.16729C14.8352 6.4739 15.0018 6.3888 15.4194 6.51309ZM3.31875 6.7615C3.25746 6.82237 3.22155 6.90302 3.22155 6.97966C3.22155 7.0563 3.25746 7.13696 3.31875 7.19782L3.41591 7.29441H7.65599H11.8961L11.9932 7.19782C12.0545 7.13696 12.0904 7.0563 12.0904 6.97966C12.0904 6.90302 12.0545 6.82237 11.9932 6.7615L11.8961 6.66491H7.65599H3.41591L3.31875 6.7615ZM11.9519 11.7009L9.61613 14.0221L9.02224 13.4319L8.42834 12.8418L10.7641 10.5206L13.0998 8.19935L13.6937 8.7895L14.2876 9.37965L11.9519 11.7009ZM3.31875 8.33524C3.25746 8.3961 3.22155 8.47676 3.22155 8.5534C3.22155 8.63004 3.25746 8.71069 3.31875 8.77156L3.41591 8.86814H5.2804H7.14488L7.24204 8.77156C7.37064 8.64381 7.37064 8.46299 7.24204 8.33524L7.14488 8.23865H5.2804H3.41591L3.31875 8.33524ZM15.7251 9.11546L15.8101 9.20544L15.0589 9.95111L14.3077 10.6968V10.4813V10.2657L14.9308 9.64561C15.2735 9.30458 15.5733 9.02552 15.597 9.02552C15.6207 9.02552 15.6783 9.066 15.7251 9.11546ZM9.00216 14.4162C9.00216 14.4417 7.77643 14.7058 7.75537 14.6848C7.74737 14.6769 7.77323 14.529 7.81278 14.3561C7.8523 14.1832 7.91517 13.9022 7.95239 13.7315L8.02013 13.4212L8.51117 13.908C8.78119 14.1757 9.00216 14.4044 9.00216 14.4162Z" stroke="#082A4F" stroke-width="0.24" mask="url(#path-1-outside-1_243_48)"/>
</svg>
