<svg width="16" height="17" viewBox="0 0 16 17" fill="none" xmlns="http://www.w3.org/2000/svg">
<path d="M13.825 15V15.175H14H15.825V16.825H0.175V15.175H2H2.175V15V12.0002C2.17575 11.2511 2.47364 10.533 3.0033 10.0033C3.53296 9.47364 4.25112 9.17575 5.00017 9.175L10.9999 9.175C11.7489 9.17577 12.4671 9.47366 12.9967 10.0033C13.5264 10.533 13.8243 11.2511 13.825 12.0002V15ZM12 15.175H12.175V15V12C12.175 11.6884 12.0512 11.3895 11.8309 11.1691C11.6105 10.9488 11.3116 10.825 11 10.825H5C4.68837 10.825 4.3895 10.9488 4.16915 11.1691C3.94879 11.3895 3.825 11.6884 3.825 12V15V15.175H4H12Z" fill="#082A4F" stroke="#EFF7FF" stroke-width="0.35"/>
<path d="M4.81963 1.87495C4.39935 2.50394 4.17502 3.24343 4.175 3.99992C4.17604 5.01407 4.57937 5.9864 5.29649 6.70352C6.01358 7.42061 6.98587 7.82394 8 7.825L4.81963 1.87495ZM4.81963 1.87495C5.23992 1.24593 5.83731 0.755668 6.53624 0.466163M4.81963 1.87495L6.53624 0.466163M6.53624 0.466163C7.23516 0.176657 8.00424 0.10091 8.74622 0.248498M6.53624 0.466163L8.74622 0.248498M8.74622 0.248498C9.4882 0.396087 10.1697 0.760383 10.7047 1.29532M8.74622 0.248498L10.7047 1.29532M10.7047 1.29532C11.2396 1.83025 11.6039 2.5118 11.7515 3.25378M10.7047 1.29532L11.7515 3.25378M11.7515 3.25378C11.8991 3.99576 11.8233 4.76484 11.5338 5.46377M11.7515 3.25378L11.5338 5.46377M11.5338 5.46377C11.2443 6.16269 10.7541 6.76008 10.1251 7.18037M11.5338 5.46377L10.1251 7.18037M10.1251 7.18037C9.49609 7.60064 8.75663 7.82497 8.00017 7.825L10.1251 7.18037ZM8 1.825L7.99983 1.825C7.4232 1.82558 6.87036 2.0549 6.46263 2.46263C6.05489 2.87036 5.82558 3.4232 5.825 3.99983V4C5.825 4.43018 5.95256 4.85069 6.19155 5.20837C6.43055 5.56604 6.77023 5.84482 7.16766 6.00944C7.56509 6.17406 8.00241 6.21713 8.42432 6.13321C8.84623 6.04929 9.23378 5.84214 9.53796 5.53796C9.84214 5.23378 10.0493 4.84623 10.1332 4.42432C10.2171 4.00241 10.1741 3.56509 10.0094 3.16767C9.84482 2.77024 9.56604 2.43055 9.20836 2.19156C8.85069 1.95256 8.43017 1.825 8 1.825Z" fill="#082A4F" stroke="#EFF7FF" stroke-width="0.35"/>
</svg>
