<svg width="19" height="17" viewBox="0 0 19 17" fill="none" xmlns="http://www.w3.org/2000/svg">
<path d="M9.8876 0.13958C9.77522 0.0491242 9.6368 0 9.4943 0C9.3518 0 9.21338 0.0491242 9.101 0.13958L0 7.46608L0.787233 8.49394L1.9 7.59816V15.6923C1.90067 16.0389 2.03434 16.3711 2.27174 16.6162C2.50914 16.8613 2.83093 16.9993 3.16667 17H15.8333C16.1691 16.9993 16.4909 16.8613 16.7283 16.6162C16.9657 16.3711 17.0993 16.0389 17.1 15.6923V7.60404L18.2128 8.49983L19 7.47196L9.8876 0.13958ZM10.7667 15.6923H8.23333V10.4614H10.7667V15.6923ZM12.0333 15.6923V10.4614C12.033 10.1147 11.8994 9.78226 11.662 9.53709C11.4245 9.29192 11.1025 9.15403 10.7667 9.15369H8.23333C7.8975 9.15403 7.57551 9.29192 7.33804 9.53709C7.10056 9.78226 6.967 10.1147 6.96667 10.4614V15.6923H3.16667V6.57879L9.5 1.48522L15.8333 6.58533V15.6923H12.0333Z" fill="#EFF7FF"/>
</svg>
