<svg width="14" height="17" viewBox="0 0 14 17" fill="none" xmlns="http://www.w3.org/2000/svg">
<path d="M12.9998 8.71414L10.4285 6.1428M7 8.71414H12.9998H7ZM12.9998 8.71414L10.4285 11.2855L12.9998 8.71414Z" stroke="#082A4F" stroke-width="1.1" stroke-linecap="round" stroke-linejoin="round"/>
<path d="M12.9996 3.57134V2.71423C12.9996 2.25958 12.819 1.82356 12.4975 1.50209C12.176 1.18061 11.74 1 11.2854 1H2.71423C2.25958 1 1.82356 1.18061 1.50209 1.50209C1.18061 1.82356 1 2.25958 1 2.71423V14.7138C1 15.1684 1.18061 15.6045 1.50209 15.9259C1.82356 16.2474 2.25958 16.428 2.71423 16.428H11.2854C11.74 16.428 12.176 16.2474 12.4975 15.9259C12.819 15.6045 12.9996 15.1684 12.9996 14.7138V13.8567" stroke="#082A4F" stroke-width="1.1" stroke-linecap="round" stroke-linejoin="round"/>
</svg>
