<svg width="14" height="15" viewBox="0 0 14 15" fill="none" xmlns="http://www.w3.org/2000/svg">
<path d="M13.6667 12.3333H0.333374V10.9999H1.00004V6.35395C1.00004 3.02862 3.68671 0.333282 7.00004 0.333282C10.3134 0.333282 13 3.02862 13 6.35395V10.9999H13.6667V12.3333ZM2.33337 10.9999H11.6667V6.35395C11.6667 3.76528 9.57737 1.66662 7.00004 1.66662C4.42271 1.66662 2.33337 3.76528 2.33337 6.35395V10.9999ZM5.33337 12.9999H8.66671C8.66671 13.442 8.49111 13.8659 8.17855 14.1785C7.86599 14.491 7.44207 14.6666 7.00004 14.6666C6.55801 14.6666 6.13409 14.491 5.82153 14.1785C5.50897 13.8659 5.33337 13.442 5.33337 12.9999Z" fill="#082A4F"/>
</svg>
