<svg width="16" height="17" viewBox="0 0 16 17" fill="none" xmlns="http://www.w3.org/2000/svg">
<path d="M3.3 1L1 4.06667V14.8C1 15.2067 1.16155 15.5967 1.4491 15.8842C1.73666 16.1718 2.12667 16.3333 2.53333 16.3333H13.2667C13.6733 16.3333 14.0633 16.1718 14.3509 15.8842C14.6385 15.5967 14.8 15.2067 14.8 14.8V4.06667L12.5 1H3.3Z" stroke="#082A4F" stroke-linecap="round" stroke-linejoin="round"/>
<path d="M1 4.06647H14.8" stroke="#082A4F" stroke-linecap="round" stroke-linejoin="round"/>
<path d="M10.9663 7.13351C10.9663 7.94685 10.6432 8.72686 10.0681 9.30198C9.49302 9.87709 8.71301 10.2002 7.89967 10.2002C7.08634 10.2002 6.30633 9.87709 5.73121 9.30198C5.1561 8.72686 4.83301 7.94685 4.83301 7.13351" stroke="#082A4F" stroke-linecap="round" stroke-linejoin="round"/>
</svg>
