<svg width="17" height="19" viewBox="0 0 17 19" fill="none" xmlns="http://www.w3.org/2000/svg">
<path d="M0.950006 3.76125L0.964322 3.74666L1.06838 3.64065C1.13656 3.57118 1.21351 3.52824 1.33576 3.50266C1.45494 3.47772 1.6193 3.46885 1.86369 3.46666C2.79363 3.45831 4.23442 3.20322 5.26487 2.86384C6.51332 2.45266 7.2834 2.01316 7.92605 1.35025C8.02056 1.25275 8.11213 1.16171 8.18362 1.09349C8.21931 1.05942 8.25031 1.03076 8.2743 1.00974C8.28626 0.999263 8.29689 0.990321 8.30573 0.98344C8.31279 0.977939 8.32357 0.969789 8.33414 0.965416C8.34689 0.960144 8.36235 0.957142 8.37633 0.955176C8.39129 0.953073 8.40849 0.951648 8.42669 0.950834C8.46308 0.949205 8.50572 0.949921 8.54633 0.953357L0.950006 3.76125ZM0.950006 3.76125V3.78169M0.950006 3.76125V3.78169M0.950006 3.78169V6.99542C0.950006 7.06329 0.950004 7.12985 0.950003 7.19512C0.949962 8.84794 0.949942 9.67673 0.976893 10.1981C1.00403 10.7231 1.05874 10.9393 1.16661 11.3656C1.17079 11.3822 1.17506 11.399 1.1794 11.4162C1.85962 14.1086 4.11675 16.4047 7.30772 17.6647C7.53672 17.7551 7.80771 17.8509 8.03416 17.9242C8.14738 17.9608 8.2499 17.9919 8.33073 18.0139C8.37111 18.0249 8.40653 18.0337 8.4354 18.0399C8.46302 18.0458 8.48839 18.05 8.50678 18.05C8.52661 18.05 8.55475 18.045 8.58566 18.038C8.61801 18.0307 8.65799 18.0203 8.70368 18.0072C8.79515 17.9812 8.91138 17.9446 9.03895 17.9018C9.29409 17.8163 9.59636 17.7059 9.83964 17.606C12.9843 16.3149 15.1803 14.0393 15.8333 11.3805C15.8386 11.359 15.8437 11.3381 15.8488 11.3177C15.949 10.9105 15.9998 10.7039 16.0251 10.1937C16.0501 9.68702 16.0501 8.878 16.05 7.26439C16.05 7.18237 16.05 7.09827 16.05 7.01203V3.78169V3.76125M0.950006 3.78169L16.05 3.76125M16.05 3.76125L16.0357 3.74666M16.05 3.76125L16.0357 3.74666M16.0357 3.74666L15.9316 3.64065C15.7945 3.50094 15.6207 3.47089 15.1479 3.46703C14.2368 3.4596 12.7404 3.19547 11.7351 2.86401L11.7195 2.9115M16.0357 3.74666L11.7195 2.9115M11.7195 2.9115L11.7351 2.86401C10.4843 2.45161 9.71073 2.00888 9.06792 1.34279M11.7195 2.9115L9.06792 1.34279M8.4865 2.13833L8.48649 2.13834C8.39747 2.2476 8.18281 2.4221 7.93303 2.60033C7.68148 2.77982 7.38838 2.96723 7.13786 3.10232C5.81532 3.81548 4.07062 4.27047 2.11907 4.41346M8.4865 2.13833L1.82862 4.38462M8.4865 2.13833C8.48779 2.13674 8.48889 2.13547 8.48981 2.13445C8.491 2.13497 8.49243 2.13565 8.49412 2.13652C8.50614 2.1427 8.52405 2.15505 8.55175 2.17756C8.57895 2.19966 8.6133 2.22963 8.65785 2.26934L8.65786 2.26935C8.76939 2.36872 8.9763 2.53419 9.11855 2.63785C9.90736 3.21266 11.0755 3.71189 12.3685 4.02928C13.1654 4.22492 13.8808 4.33367 14.8969 4.41404L15.1212 4.43177M8.4865 2.13833L15.1714 4.38559M2.11907 4.41346L2.11542 4.36359L2.11907 4.41346L2.11907 4.41346ZM2.11907 4.41346L1.87882 4.43108M1.87882 4.43108L1.87862 4.38441L1.82862 4.38462M1.87882 4.43108L1.89128 7.3797C1.89666 8.65629 1.90169 9.41391 1.91081 9.8789C1.91995 10.3454 1.93322 10.5135 1.95385 10.6144C2.3276 12.4411 3.1939 13.848 4.70688 15.0832C5.63642 15.8421 6.85292 16.5086 8.1229 16.9541L8.49561 17.0848M1.87882 4.43108L1.83228 4.43449L1.82862 4.38462M1.82862 4.38462L8.49561 17.0848M8.49561 17.0848L8.47928 17.0904L8.49533 17.1377M8.49561 17.0848L1.90486 10.6244C2.28104 12.4629 3.15381 13.8798 4.67526 15.1219C5.60979 15.8849 6.83154 16.5541 8.10635 17.0013L8.49533 17.1377M8.49561 17.0848L8.51188 17.0905L8.49533 17.1377M8.49561 17.0848L8.84029 16.968C9.57007 16.7205 10.5209 16.2795 11.1211 15.9102C13.3011 14.5691 14.604 12.8298 15.0305 10.7012C15.0936 10.3859 15.0973 10.2519 15.1091 7.3802L15.1212 4.43177M8.49533 17.1377L8.85635 17.0153C9.58936 16.7668 10.5436 16.3242 11.1473 15.9528C13.3369 14.6058 14.6498 12.8556 15.0795 10.7111C15.1439 10.3895 15.1473 10.2481 15.1591 7.38041L15.1714 4.38559M15.1714 4.38559L15.1674 4.43543L15.1212 4.43177M15.1714 4.38559L15.1214 4.38538L15.1212 4.43177M10.9731 12.7258L10.9731 12.7258C10.9694 12.7315 10.9658 12.7372 10.9622 12.743C10.9385 12.781 10.9131 12.8215 10.8613 12.8506C10.8045 12.8826 10.7192 12.8998 10.5732 12.9109C10.2992 12.9316 9.77931 12.9319 8.74657 12.9323C8.66899 12.9324 8.58852 12.9324 8.50504 12.9324C7.50993 12.933 6.95386 12.9319 6.63646 12.9246C6.47802 12.9209 6.37739 12.9156 6.31079 12.908C6.24467 12.9004 6.20631 12.89 6.17661 12.8721C6.17661 12.8721 6.1766 12.8721 6.1766 12.8721L6.20239 12.8292L10.9731 12.7258ZM10.9731 12.7258C11.0118 12.6659 11.0271 12.6088 11.0352 12.3594C11.0434 12.1077 11.044 11.6488 11.0439 10.7739C11.0438 10.0817 11.0413 9.61953 11.0349 9.32278C11.0318 9.17449 11.0277 9.06679 11.0224 8.99205C11.0197 8.95474 11.0167 8.92484 11.0132 8.90184C11.0101 8.8807 11.0057 8.85967 10.998 8.84425L10.9533 8.86676M10.9731 12.7258L10.9533 8.86676M10.9533 8.86676L10.998 8.84424C10.9532 8.75546 10.8948 8.69177 10.8057 8.65024C10.7193 8.61001 10.6078 8.5924 10.4602 8.5861L10.4581 8.63605M10.9533 8.86676L10.4581 8.63605M10.4581 8.63605L10.4602 8.5861L10.236 8.57655L10.221 8.03665C10.2123 7.72359 10.1984 7.51753 10.1635 7.35051C10.1281 7.1816 10.0715 7.05423 9.98064 6.89758C9.63187 6.2961 8.96461 5.97046 8.2651 6.05905C7.73853 6.12573 7.27495 6.44693 7.00616 6.92887C6.92172 7.08025 6.86881 7.20592 6.83529 7.37374C6.80214 7.5397 6.78825 7.74558 6.77918 8.05644L6.76387 8.581H6.58724C6.30543 8.581 6.12877 8.64354 6.02859 8.81099M10.4581 8.63605L6.02859 8.81099M6.02859 8.81099C6.0286 8.81098 6.0286 8.81098 6.0286 8.81097L6.0715 8.83666L6.02859 8.81099ZM9.06792 1.34279C8.90711 1.17616 8.81401 1.08195 8.74453 1.02885M9.06792 1.34279L8.74453 1.02885M8.74453 1.02885C8.70877 1.00151 8.67735 0.9835 8.64437 0.971908M8.74453 1.02885L8.64437 0.971908M8.64437 0.971908C8.61166 0.960409 8.58009 0.956204 8.54634 0.953358L8.64437 0.971908ZM9.24631 7.54714L9.24631 7.54715C9.25005 7.55832 9.25471 7.58205 9.25927 7.61943C9.26368 7.65563 9.26765 7.70143 9.27096 7.75461C9.27758 7.8609 9.28152 7.99502 9.28152 8.1376V8.581H8.5H7.71848V8.1376C7.71848 7.87444 7.72421 7.71833 7.7459 7.6039C7.76695 7.49286 7.80316 7.42055 7.86883 7.32601C8.09714 6.99737 8.52498 6.90111 8.88424 7.10031C9.04758 7.19088 9.18253 7.35645 9.24631 7.54714ZM10.1293 10.7739V12.003H8.5H6.87065V10.7739V9.54481H8.5H10.1293V10.7739Z" fill="#082A4F" stroke="#082A4F" stroke-width="0.1"/>
</svg>
