<svg width="14" height="14" viewBox="0 0 14 14" fill="none" xmlns="http://www.w3.org/2000/svg">
<path d="M3.11337 10.8055C3.25111 10.4152 3.50653 10.0772 3.84444 9.83806C4.18235 9.59897 4.5861 9.47057 5.00004 9.47057C5.41398 9.47057 5.81773 9.59897 6.15564 9.83806C6.49355 10.0772 6.74897 10.4152 6.88671 10.8055H13.6667V12.1389H6.88671C6.74897 12.5292 6.49355 12.8672 6.15564 13.1063C5.81773 13.3454 5.41398 13.4738 5.00004 13.4738C4.5861 13.4738 4.18235 13.3454 3.84444 13.1063C3.50653 12.8672 3.25111 12.5292 3.11337 12.1389H0.333374V10.8055H3.11337ZM7.11337 6.13887C7.25111 5.74852 7.50653 5.41049 7.84444 5.1714C8.18235 4.9323 8.5861 4.8039 9.00004 4.8039C9.41398 4.8039 9.81773 4.9323 10.1556 5.1714C10.4935 5.41049 10.749 5.74852 10.8867 6.13887H13.6667V7.4722H10.8867C10.749 7.86256 10.4935 8.20058 10.1556 8.43968C9.81773 8.67877 9.41398 8.80717 9.00004 8.80717C8.5861 8.80717 8.18235 8.67877 7.84444 8.43968C7.50653 8.20058 7.25111 7.86256 7.11337 7.4722H0.333374V6.13887H7.11337ZM3.11337 1.4722C3.25111 1.08185 3.50653 0.743827 3.84444 0.504731C4.18235 0.265635 4.5861 0.137238 5.00004 0.137238C5.41398 0.137238 5.81773 0.265635 6.15564 0.504731C6.49355 0.743827 6.74897 1.08185 6.88671 1.4722H13.6667V2.80554H6.88671C6.74897 3.19589 6.49355 3.53392 6.15564 3.77301C5.81773 4.01211 5.41398 4.1405 5.00004 4.1405C4.5861 4.1405 4.18235 4.01211 3.84444 3.77301C3.50653 3.53392 3.25111 3.19589 3.11337 2.80554H0.333374V1.4722H3.11337ZM5.00004 2.80554C5.17685 2.80554 5.34642 2.7353 5.47145 2.61028C5.59647 2.48525 5.66671 2.31568 5.66671 2.13887C5.66671 1.96206 5.59647 1.79249 5.47145 1.66747C5.34642 1.54244 5.17685 1.4722 5.00004 1.4722C4.82323 1.4722 4.65366 1.54244 4.52864 1.66747C4.40361 1.79249 4.33337 1.96206 4.33337 2.13887C4.33337 2.31568 4.40361 2.48525 4.52864 2.61028C4.65366 2.7353 4.82323 2.80554 5.00004 2.80554ZM9.00004 7.4722C9.17685 7.4722 9.34642 7.40197 9.47145 7.27694C9.59647 7.15192 9.66671 6.98235 9.66671 6.80554C9.66671 6.62873 9.59647 6.45916 9.47145 6.33413C9.34642 6.20911 9.17685 6.13887 9.00004 6.13887C8.82323 6.13887 8.65366 6.20911 8.52864 6.33413C8.40361 6.45916 8.33337 6.62873 8.33337 6.80554C8.33337 6.98235 8.40361 7.15192 8.52864 7.27694C8.65366 7.40197 8.82323 7.4722 9.00004 7.4722ZM5.00004 12.1389C5.17685 12.1389 5.34642 12.0686 5.47145 11.9436C5.59647 11.8186 5.66671 11.649 5.66671 11.4722C5.66671 11.2954 5.59647 11.1258 5.47145 11.0008C5.34642 10.8758 5.17685 10.8055 5.00004 10.8055C4.82323 10.8055 4.65366 10.8758 4.52864 11.0008C4.40361 11.1258 4.33337 11.2954 4.33337 11.4722C4.33337 11.649 4.40361 11.8186 4.52864 11.9436C4.65366 12.0686 4.82323 12.1389 5.00004 12.1389Z" fill="#082A4F"/>
</svg>
