<svg width="16" height="20" viewBox="0 0 16 20" fill="none" xmlns="http://www.w3.org/2000/svg">
<path d="M3 7.2H3.2V7V5C3.2 2.35346 5.35346 0.2 8 0.2C10.5796 0.2 12.6907 2.24582 12.7959 4.8H11.1938C11.0902 3.12834 9.69729 1.8 8 1.8C6.23554 1.8 4.8 3.23554 4.8 5V7V7.2H5H14C14.9925 7.2 15.8 8.00746 15.8 9V18C15.8 18.9925 14.9925 19.8 14 19.8H2C1.00746 19.8 0.2 18.9925 0.2 18V9C0.2 8.00746 1.00746 7.2 2 7.2H3ZM14.002 18.2H14.202L14.202 18L14.2 8.99996L14.2 8.8H14H2H1.8V9V18V18.2H2H7H7.2V18V15.722V15.6071L7.10076 15.5492C6.56307 15.2357 6.2 14.6602 6.2 14C6.2 13.0075 7.00746 12.2 8 12.2C8.99254 12.2 9.8 13.0075 9.8 14C9.8 14.6611 9.43698 15.2356 8.89924 15.5492L8.8 15.6071V15.722V18V18.2H9H14.002Z" fill="#082A4F" stroke="#EFF7FF" stroke-width="0.4"/>
</svg>
