<svg width="17" height="17" viewBox="0 0 17 17" fill="none" xmlns="http://www.w3.org/2000/svg">
<path d="M8.5 8.5C9.62717 8.5 10.7082 8.05223 11.5052 7.2552C12.3022 6.45817 12.75 5.37717 12.75 4.25C12.75 3.12283 12.3022 2.04183 11.5052 1.2448C10.7082 0.447767 9.62717 0 8.5 0C7.37283 0 6.29183 0.447767 5.4948 1.2448C4.69777 2.04183 4.25 3.12283 4.25 4.25C4.25 5.37717 4.69777 6.45817 5.4948 7.2552C6.29183 8.05223 7.37283 8.5 8.5 8.5ZM11.3333 4.25C11.3333 5.00145 11.0348 5.72212 10.5035 6.25347C9.97212 6.78482 9.25145 7.08333 8.5 7.08333C7.74855 7.08333 7.02788 6.78482 6.49653 6.25347C5.96518 5.72212 5.66667 5.00145 5.66667 4.25C5.66667 3.49855 5.96518 2.77788 6.49653 2.24653C7.02788 1.71518 7.74855 1.41667 8.5 1.41667C9.25145 1.41667 9.97212 1.71518 10.5035 2.24653C11.0348 2.77788 11.3333 3.49855 11.3333 4.25ZM17 15.5833C17 17 15.5833 17 15.5833 17H1.41667C1.41667 17 0 17 0 15.5833C0 14.1667 1.41667 9.91667 8.5 9.91667C15.5833 9.91667 17 14.1667 17 15.5833ZM15.5833 15.5777C15.5819 15.2292 15.3652 14.1808 14.4047 13.2203C13.481 12.2967 11.7428 11.3333 8.5 11.3333C5.25583 11.3333 3.519 12.2967 2.59533 13.2203C1.63483 14.1808 1.4195 15.2292 1.41667 15.5777H15.5833Z" fill="#EFF7FF"/>
</svg>
